<svg width="48" height="48" viewBox="0 0 48 48" fill="none" xmlns="http://www.w3.org/2000/svg">
<rect width="48" height="48" fill="#323238"/>
<path d="M33.5999 12.2667H14.3999C13.2213 12.2667 12.2666 13.2213 12.2666 14.4V33.6C12.2666 34.7787 13.2213 35.7333 14.3999 35.7333H33.5999C34.7786 35.7333 35.7333 34.7787 35.7333 33.6V14.4C35.7333 13.2213 34.7786 12.2667 33.5999 12.2667ZM19.6842 31.4667H16.5375V21.3419H19.6842V31.4667ZM18.0789 19.8944C17.0645 19.8944 16.2442 19.072 16.2442 18.0597C16.2442 17.0475 17.0655 16.2261 18.0789 16.2261C19.0901 16.2261 19.9125 17.0485 19.9125 18.0597C19.9125 19.072 19.0901 19.8944 18.0789 19.8944ZM31.4709 31.4667H28.3263V26.5429C28.3263 25.3685 28.305 23.8581 26.6911 23.8581C25.0538 23.8581 24.8021 25.1371 24.8021 26.4576V31.4667H21.6575V21.3419H24.6762V22.7253H24.7189C25.1391 21.9296 26.1653 21.0901 27.6959 21.0901C30.8821 21.0901 31.4709 23.1872 31.4709 25.9136V31.4667Z" fill="white"/>
</svg>
